<svg width="24" height="24" viewBox="0 0 24 24" fill="none" xmlns="http://www.w3.org/2000/svg">
<g clip-path="url(#clip0_135_1017)">
<path fill-rule="evenodd" clip-rule="evenodd" d="M11.9213 22.0856L15.4631 15H19.5C21.1569 15 22.5 13.6569 22.5 12C22.5 10.3431 21.1569 9 19.5 9H15.4631L11.9213 1.91437C11.7941 1.66023 11.5342 1.4998 11.25 1.5H8.25C8.02536 1.50012 7.8126 1.60094 7.67024 1.77471C7.52789 1.94848 7.47091 2.17692 7.515 2.39719L8.835 9H7.06031L5.78062 7.71938C5.63985 7.57876 5.44897 7.49984 5.25 7.5H2.25C2.00039 7.49957 1.76692 7.62335 1.6272 7.8302C1.48748 8.03705 1.45983 8.29985 1.55344 8.53125L2.94188 12L1.55344 15.4688C1.45983 15.7001 1.48748 15.963 1.6272 16.1698C1.76692 16.3766 2.00039 16.5004 2.25 16.5H5.25C5.44897 16.5002 5.63985 16.4212 5.78062 16.2806L7.06031 15H8.835L7.515 21.6028C7.47091 21.8231 7.52789 22.0515 7.67024 22.2253C7.8126 22.3991 8.02536 22.4999 8.25 22.5H11.25C11.5342 22.5002 11.7941 22.3398 11.9213 22.0856ZM9.165 21L10.485 14.3972C10.5291 14.1769 10.4721 13.9485 10.3298 13.7747C10.1874 13.6009 9.97464 13.5001 9.75 13.5L6.75 13.5C6.55103 13.4998 6.36015 13.5788 6.21938 13.7194L4.93969 15H3.35813L4.44656 12.2813C4.51803 12.1025 4.51803 11.9031 4.44656 11.7244L3.35813 9H4.93969L6.21938 10.2806C6.36015 10.4212 6.55103 10.5002 6.75 10.5L9.75 10.5C9.97464 10.4999 10.1874 10.3991 10.3298 10.2253C10.4721 10.0515 10.5291 9.82308 10.485 9.60281L9.165 3H10.7869L14.3287 10.0856C14.4559 10.3398 14.7158 10.5002 15 10.5H19.5C20.3284 10.5 21 11.1716 21 12C21 12.8284 20.3284 13.5 19.5 13.5H15C14.7158 13.4998 14.4559 13.6602 14.3287 13.9144L10.7869 21H9.165Z" fill="#0D141C"/>
</g>
<defs>
<clipPath id="clip0_135_1017">
<rect width="24" height="24" fill="white" transform="matrix(0 1 -1 0 24 0)"/>
</clipPath>
</defs>
</svg>
